:SAMPLES-PER-SECOND 30
:FULLY-SPECIFIED
:DEGREES
681
root  32.1545 38.4881 9.83405 148.983 77.4414 158.78
RightUpLeg  -6.79127 -20.8792 -18.4024
RightLeg  33.1491 -8.66541 -6.29646
RightFoot  -8.4521 -0.170181 4.47055
RightToes  0.000481921 0.542163 -0.142578
Spine  20.0025 0.275228 9.42105
Spine1  10.4955 4.60348 -8.73482
HEad  17.8329 -5.92657 -0.154444
LeftShoulder1  6.42375 -13.2288 -32.3504
LeftArm  0.22602 -27.7799 -52.1962
LeftForeArm  -167.842 -60.82 -164.245
LeftHand  -0.25398 0.0180481 5.50724
RightShoulder  3.31911 9.10355 19.9211
RightArm  -19.5351 44.6969 44.1938
RightForeArm  -165.142 68.6963 157.941
RightHand  -0.16647 2.95098 -2.5295
LeftUpLeg  -8.94373 9.50247 0.620443
LeftLeg  26.8346 2.98015 1.97323
LeftFoot  -6.12246 0.235455 -4.36605
LeftToes  1.06244e-005 4.65869e-005 -8.65518e-006
682
root  32.3423 38.7126 9.78506 144.666 79.5328 154.6
RightUpLeg  -6.14618 -18.769 -17.6316
RightLeg  31.1224 -8.8892 -5.98901
RightFoot  -7.66772 -0.191343 4.33938
RightToes  0.000481921 0.542163 -0.142578
Spine  18.7864 0.198699 8.11503
Spine1  10.942 3.77487 -7.2562
HEad  18.9129 -4.12764 -0.276748
LeftShoulder1  6.57836 -13.3375 -33.0196
LeftArm  -0.683336 -26.287 -52.1268
LeftForeArm  -166.405 -59.7945 -164.988
LeftHand  -0.25398 0.0180481 5.50724
RightShoulder  3.52714 9.35206 21.1048
RightArm  -14.0668 41.2693 48.9904
RightForeArm  -159.762 66.4503 160.679
RightHand  -0.382592 5.06489 -4.62378
LeftUpLeg  -7.10968 11.18 1.29825
LeftLeg  24.9354 3.4267 2.07852
LeftFoot  -5.77343 0.263927 -4.70863
LeftToes  1.06244e-005 4.65869e-005 -8.65518e-006
683
root  32.5914 39.0502 9.79595 140.818 81.2003 150.214
RightUpLeg  -5.36133 -17.5667 -16.748
RightLeg  27.9561 -9.01681 -5.38776
RightFoot  -6.53478 -0.225252 4.30188
RightToes  0.000481921 0.542163 -0.142578
Spine  17.2975 0.1093 6.63557
Spine1  10.7086 2.80496 -5.59235
HEad  20.1786 -2.75357 -0.173353
LeftShoulder1  6.68767 -13.3074 -33.7355
LeftArm  -1.00808 -23.8811 -51.7083
LeftForeArm  -164.38 -58.0748 -166.119
LeftHand  -0.25398 0.0180481 5.50724
RightShoulder  3.96401 9.69347 23.8565
RightArm  -9.54377 33.7598 52.0621
RightForeArm  -157.105 62.5138 163.988
RightHand  -0.487986 5.91149 -5.41852
LeftUpLeg  -5.25171 13.5292 2.07093
LeftLeg  21.5833 2.91946 1.62425
LeftFoot  -4.70989 0.322647 -5.08013
LeftToes  1.06244e-005 4.65869e-005 -8.65518e-006
684
root  32.8432 39.3582 9.83194 137.439 82.4778 145.809
RightUpLeg  -4.90136 -17.6197 -16.0106
RightLeg  24.7638 -8.50397 -4.48411
RightFoot  -5.4538 -0.261578 4.36182
RightToes  0.000481921 0.542163 -0.142578
Spine  15.4771 -0.1658 5.11382
Spine1  10.5406 1.56904 -3.58761
HEad  20.5578 -1.44162 -0.196121
LeftShoulder1  6.70559 -13.1108 -34.3078
LeftArm  -1.37281 -21.6808 -50.631
LeftForeArm  -162.339 -56.0974 -167.278
LeftHand  -0.25398 0.0180481 5.50724
RightShoulder  4.54014 10.0636 27.4369
RightArm  -7.05904 25.6053 52.6327
RightForeArm  -152.856 58.2058 166.891
RightHand  -0.184051 5.4611 -2.32877
LeftUpLeg  -3.96788 15.4502 2.68941
LeftLeg  18.2001 2.42797 1.11868
LeftFoot  -3.60169 0.385678 -5.37999
LeftToes  1.06244e-005 4.65869e-005 -8.65518e-006
685
root  33.0066 39.5247 9.88256 129.992 83.8544 137.343
RightUpLeg  -5.31239 -17.8903 -15.3363
RightLeg  22.8547 -7.40949 -3.62967
RightFoot  -4.77572 -0.279142 4.29783
RightToes  0.000481921 0.542163 -0.142578
Spine  14.026 -0.4521 3.66144
Spine1  10.7998 0.33205 -1.27539
HEad  19.4888 -0.0127617 -0.514607
LeftShoulder1  6.61303 -12.8613 -34.3561
LeftArm  -2.68605 -20.554 -48.7421
LeftForeArm  -160.845 -54.0409 -168.321
LeftHand  -0.25398 0.0180481 5.50724
RightShoulder  4.98031 10.3483 29.993
RightArm  -6.55164 20.8066 51.8143
RightForeArm  -148.211 55.238 168.619
RightHand  0.148733 5.0606 1.24156
LeftUpLeg  -3.46184 16.1479 3.22124
LeftLeg  16.2441 3.36632 0.810185
LeftFoot  -3.10887 0.435641 -5.79473
LeftToes  1.06244e-005 4.65869e-005 -8.65518e-006
686
root  33.038 39.539 9.93626 108.732 85.3657 115.593
RightUpLeg  -6.45779 -17.2439 -14.5688
RightLeg  22.5571 -6.18653 -3.03114
RightFoot  -4.48843 -0.264968 3.91208
RightToes  0.000481921 0.542163 -0.142578
Spine  13.9032 -0.557274 2.63298
Spine1  10.9396 -0.492959 0.721027
HEad  17.5665 1.4075 -0.709052
LeftShoulder1  6.34384 -12.5259 -33.5292
LeftArm  -5.24255 -20.4821 -46.3357
LeftForeArm  -159.88 -51.7936 -169.317
LeftHand  -0.25398 0.0180481 5.50724
RightShoulder  5.1246 10.5069 30.6216
RightArm  -7.38946 20.7833 51.0205
RightForeArm  -147.358 54.2474 169.085
RightHand  0.197468 4.70224 1.88746
LeftUpLeg  -3.40873 17.2767 3.77669
LeftLeg  16.1548 4.58307 0.978814
LeftFoot  -3.27873 0.455332 -6.17983
LeftToes  1.06244e-005 4.65869e-005 -8.65518e-006
687
root  32.9918 39.4796 9.96754 68.9316 85.8629 75.9033
RightUpLeg  -7.5814 -15.9098 -13.6945
RightLeg  22.9092 -4.89739 -2.48669
RightFoot  -4.25988 -0.233613 3.30637
RightToes  0.000481921 0.542163 -0.142578
Spine  14.9736 -0.50028 2.61659
Spine1  10.7171 -0.644119 1.5546
HEad  15.9309 2.50532 -0.287205
LeftShoulder1  6.0023 -12.133 -32.3482
LeftArm  -8.31179 -21.0218 -43.6536
LeftForeArm  -159.858 -49.8749 -170.051
LeftHand  -0.25398 0.0180481 5.50724
RightShoulder  5.0356 10.5401 29.8881
RightArm  -9.17672 23.6982 50.7333
RightForeArm  -150.219 54.5666 168.775
RightHand  0.091157 4.01622 0.787521
LeftUpLeg  -3.28667 19.4911 4.5023
LeftLeg  17.1568 5.20297 1.63404
LeftFoot  -3.71576 0.441433 -6.2849
LeftToes  1.06244e-005 4.65869e-005 -8.65518e-006
688
root  32.968 39.4492 9.96906 33.032 84.3945 40.292
RightUpLeg  -8.17352 -14.7374 -12.7743
RightLeg  22.7422 -3.39464 -1.78359
RightFoot  -3.81103 -0.209946 2.79496
RightToes  0.000481921 0.542163 -0.142578
Spine  15.9768 -0.392996 3.80253
Spine1  10.7519 -0.180311 0.987434
HEad  15.2912 3.05018 0.533877
LeftShoulder1  5.83185 -11.9281 -31.7526
LeftArm  -10.8644 -21.8039 -40.8718
LeftForeArm  -160.681 -49.0269 -170.303
LeftHand  -0.25398 0.0180481 5.50724
RightShoulder  4.82705 10.3924 28.7441
RightArm  -11.535 26.8096 50.6571
RightForeArm  -152.346 55.3251 168.309
RightHand  0.0862375 3.49887 0.825043
LeftUpLeg  -2.79051 21.3354 5.43456
LeftLeg  17.9888 6.19691 2.3756
LeftFoot  -4.03265 0.420331 -6.19995
LeftToes  1.06244e-005 4.65869e-005 -8.65518e-006
689
root  33.0248 39.4992 9.97461 17.2686 82.0648 24.526
RightUpLeg  -8.35254 -13.8398 -11.8817
RightLeg  21.7177 -1.95085 -1.07546
RightFoot  -3.15411 -0.206479 2.58202
RightToes  0.000481921 0.542163 -0.142578
Spine  16.0754 -0.284152 5.41515
Spine1  11.2291 0.47411 -0.127306
HEad  15.7267 3.2429 1.02294
LeftShoulder1  5.8666 -11.9944 -31.8139
LeftArm  -12.5917 -21.9858 -38.5768
LeftForeArm  -160.926 -48.7795 -170.374
LeftHand  -0.25398 0.0180481 5.50724
RightShoulder  4.55995 10.0267 27.6814
RightArm  -13.4943 28.8265 50.5665
RightForeArm  -151.937 56.1632 167.95
RightHand  0.1679 3.26192 1.95582
LeftUpLeg  -1.98464 22.3208 6.34517
LeftLeg  17.8741 7.80062 2.84022
LeftFoot  -4.03044 0.419874 -6.19079
LeftToes  1.06244e-005 4.65869e-005 -8.65518e-006
690
root  33.1542 39.6069 10.0217 11.2413 79.8449 18.0759
RightUpLeg  -8.49998 -12.713 -11.1019
RightLeg  20.3103 -1.09416 -0.661722
RightFoot  -2.51171 -0.217873 2.5986
RightToes  0.000481921 0.542163 -0.142578
Spine  15.6234 -0.197624 6.28643
Spine1  11.2968 0.775879 -0.575134
HEad  16.8749 3.65986 0.797518
LeftShoulder1  5.94389 -12.0809 -32.1009
LeftArm  -13.8338 -20.5184 -37.2271
LeftForeArm  -160.705 -48.158 -170.604
LeftHand  -0.25398 0.0180481 5.50724
RightShoulder  4.29991 9.58566 26.8042
RightArm  -14.0019 29.6271 50.6048
RightForeArm  -151.543 56.8015 167.673
RightHand  0.191941 2.81426 2.4426
LeftUpLeg  -1.08249 22.3914 7.02911
LeftLeg  16.836 9.9936 2.80108
LeftFoot  -3.70831 0.44698 -6.36247
LeftToes  1.06244e-005 4.65869e-005 -8.65518e-006
